<svg xmlns="http://www.w3.org/2000/svg" width="1212" height="527" fill="none"><g clip-path="url(#a)"><path fill="#FFDF6F" fill-rule="evenodd" d="M104.8 352.59c-19.8-9.43-31.32-30.6-27.46-52.19 8.05-45.1 28.55-84.7 56.99-113.46 4.34-4.4 8.87-8.53 13.56-12.41 27.76-22.87 61.4-36.25 97.69-36.25 36.28 0 69.7 13.29 97.38 36 4.7 3.86 9.24 8 13.6 12.38 28.72 28.94 49.39 68.9 57.38 114.43 3.81 21.62-7.81 42.79-27.67 52.13-42.52 20-90 31.18-140.08 31.18a329.74 329.74 0 0 1-141.42-31.81h.03Z" clip-rule="evenodd"/><path stroke="#fff" stroke-width="24.28" d="M89.87 182.61c7.27.75 14.3-.1 20.73-2.27l.15.13.24.25c-27.36 31.1-46.66 71.36-54.62 115.9-5.65 31.54 11.27 61.85 39.28 75.2a349.52 349.52 0 0 0 150.58 33.87 347.78 347.78 0 0 0 149.17-33.21c28.12-13.23 45.16-43.53 39.6-75.11-7.87-44.8-27.58-84.99-54.68-116.56-34.22-39.9.1-.17.1-.17s11.76 2.55 18.08 2.11c24.35-1.68 43.99-21.58 45.35-45.96a48.88 48.88 0 0 0-51.62-51.59c-24.05 1.35-43.82 20.51-45.87 44.52a49.08 49.08 0 0 0 2.84 21.21l-.4.4-.22.22c-29.53-21.77-64.75-34.6-102.94-34.6-38.2 0-73.65 12.92-103.26 34.85l-.22-.23-.37-.37-.71-.7a48.95 48.95 0 0 0 2.64-21.04c-2.17-23.88-21.9-42.9-45.84-44.25a48.9 48.9 0 0 0-51.67 51.64c1.34 23.73 20 43.34 43.64 45.78l.02-.02Z"/><path fill="#000" d="m95.38 122.01-13 12.99 30.9 30.9a36.85 36.85 0 0 0 13.14-12.84L95.38 122Z"/><path fill="#000" fill-rule="evenodd" d="M395.66 97.3c-19.88-.34-37.18 16.47-37.37 36.35a36.55 36.55 0 0 0 5.55 19.8l31.43-31.42L408.25 135l-31.12 31.11a36.77 36.77 0 0 0 21.1 4.5 36.86 36.86 0 0 0 33.4-33.54 36.74 36.74 0 0 0-35.97-39.79Zm-31.82 56.15-14.32 14.3c4.7 3.9 9.22 8.05 13.56 12.42l14.05-14.05a36.84 36.84 0 0 1-13.29-12.67Zm59.18 146.06c-8.27-47.07-29.77-88.9-59.94-119.34l-6.5 6.5c-4.35-4.4-8.88-8.52-13.59-12.37l6.53-6.54c-29.26-24.28-65-38.65-103.93-38.65-38.92 0-74.9 14.46-104.2 38.9l6.52 6.53c-4.7 3.87-9.23 8.01-13.57 12.41l-6.5-6.5c-29.87 30.27-51.2 71.72-59.55 118.36-4.61 25.86 9.23 50.97 32.56 62.08a337.31 337.31 0 0 0 145.37 32.71c52.01 0 100.28-11.5 144-32.06 23.4-11.03 37.36-36.13 32.8-62.03Zm-40.64 45.4a318.73 318.73 0 0 1-136.16 30.31c-48.71 0-95.82-11.09-137.47-30.92-16.26-7.74-25.47-24.96-22.37-42.26 7.78-43.54 27.45-81.31 54.46-108.6l13.6-12.36c26.17-21.29 57.64-33.6 91.15-33.6 33.52 0 64.75 12.2 90.86 33.34l13.64 12.34c27.29 27.45 47.12 65.56 54.84 109.52 3.05 17.34-6.24 34.57-22.55 42.23ZM126.44 153.07a36.98 36.98 0 0 1-13.14 12.84l14.55 14.55c4.34-4.4 8.84-8.54 13.53-12.44l-14.94-14.95Zm0 0a36.63 36.63 0 0 0 5.3-19.75c-.39-20.11-17.37-36.42-37.47-36.03a36.75 36.75 0 0 0-35.87 39.79 36.88 36.88 0 0 0 33.65 33.56 36.9 36.9 0 0 0 21.25-4.73L82.4 135l13-12.98 31.04 31.04Z" clip-rule="evenodd"/><path fill="#000" fill-rule="evenodd" d="m408.25 135.01-31.12 31.11a36.84 36.84 0 0 1-13.29-12.67l31.43-31.42L408.25 135ZM363.08 180.17l-6.5 6.5c-4.35-4.4-8.88-8.52-13.59-12.37l6.53-6.54c4.7 3.88 9.22 8.04 13.56 12.41ZM147.9 174.54c-4.7 3.87-9.22 8.01-13.56 12.41l-6.5-6.5c4.35-4.4 8.85-8.53 13.54-12.43l6.53 6.52ZM126.44 153.07a36.99 36.99 0 0 1-13.14 12.84L82.4 135l13-12.98 31.04 31.04Z" clip-rule="evenodd"/><path fill="#000" fill-rule="evenodd" d="m408.25 135-31.12 31.1a36.84 36.84 0 0 1-13.29-12.66L395.27 122 408.25 135Z" clip-rule="evenodd"/><path fill="#000" d="m349.52 167.74-6.54 6.54c4.7 3.86 9.24 8 13.6 12.38l6.49-6.49a186.12 186.12 0 0 0-13.55-12.41v-.02ZM141.37 168a189.8 189.8 0 0 0-13.54 12.44l6.5 6.5c4.34-4.4 8.87-8.53 13.56-12.41l-6.52-6.53Z"/><path fill="#000" fill-rule="evenodd" d="M140.76 330.2c-15.93-6.5-25.38-23.45-19.86-39.75 17.02-50.25 66.7-86.64 125.33-86.64 58.63 0 108.31 36.37 125.35 86.64 5.52 16.3-3.93 33.26-19.86 39.74a278.91 278.91 0 0 1-105.47 20.56 278.9 278.9 0 0 1-105.47-20.56h-.02Z" clip-rule="evenodd"/><path fill="#fff" d="M288.49 306.67c16.91 0 30.62-10.96 30.62-24.49 0-13.52-13.7-24.49-30.62-24.49-16.91 0-30.62 10.97-30.62 24.5 0 13.52 13.7 24.48 30.62 24.48ZM200.85 306.69c16.9 0 30.62-10.97 30.62-24.5 0-13.52-13.71-24.48-30.62-24.48s-30.62 10.96-30.62 24.49c0 13.52 13.7 24.49 30.62 24.49Z"/></g><path fill="#fff" d="M675 264.71h-42.64l20.84-59.3 21.8 59.3Zm-50-129.16L543.25 353.5h58.01l15.07-42.95h75.32l15.7 46.15 57.38-5.76-81.41-215.4h-58.34ZM839.07 353.5V127.21l-58.34 3.53V353.5h58.34Zm61.46 0 28.85-29.17V127.21l-58.34 3.53V353.5h29.5Zm9.94-94.88c6.2-6.4 11.97-11.53 17.3-15.38 5.35-3.85 10.58-5.77 15.71-5.77 6.2 0 11.33 1.39 15.39 4.17 4.27 2.78 7.48 6.94 9.61 12.5 2.35 5.34 3.53 11.96 3.53 19.87 0 7.9-1.18 14.75-3.53 20.51-2.35 5.77-5.45 10.15-9.3 13.15-3.84 2.99-8.22 4.48-13.13 4.48-5.56 0-11.33-1.5-17.31-4.48-5.99-3.21-12.08-7.7-18.27-13.47l-16.35 34.3c5.99 6.84 11.97 12.4 17.95 16.67a74.1 74.1 0 0 0 18.6 8.97 66.64 66.64 0 0 0 19.22 2.89c16.46 0 30.77-3.1 42.95-9.3 12.4-6.2 22.01-15.5 28.85-27.88 7.05-12.4 10.58-27.78 10.58-46.16 0-18.59-3.53-33.87-10.58-45.84-6.84-11.96-16.24-20.83-28.2-26.6-11.97-5.77-25.65-8.65-41.03-8.65-7.9 0-15.6 1.39-23.08 4.16a85.6 85.6 0 0 0-20.51 10.9 75.8 75.8 0 0 0-14.75 13.46l16.35 37.5Zm179.49 95.52c-1.07 3-3.84 5.98-8.33 8.98-4.49 2.99-9.62 5.76-15.39 8.33a460.63 460.63 0 0 1-16.02 7.05l19.55 45.2a128.27 128.27 0 0 0 29.81-10.9 104.25 104.25 0 0 0 25.32-17.95c7.27-7.05 12.5-14.75 15.71-23.08l68.27-173.72h-58.02l-29.81 87.82-31.73-93.6-53.85 15.4 55.78 142.95-1.29 3.52Z"/><defs><clipPath id="a"><path fill="#fff" d="M34 73h422.02v344.86H34z"/></clipPath></defs></svg>