<svg width="25" height="25" viewBox="0 0 25 25" fill="none" xmlns="http://www.w3.org/2000/svg">
<rect x="0.453369" y="0.116119" width="24" height="24" rx="1.88235" fill="url(#paint0_linear_113_474)"/>
<path d="M7.34186 0.196045L17.5649 0.196045V12.3875C17.5649 12.8033 17.2278 13.1404 16.8119 13.1404L8.0948 13.1404C7.67896 13.1404 7.34186 12.8033 7.34186 12.3875L7.34186 0.196045Z" fill="url(#paint1_linear_113_474)"/>
<path d="M15.9273 11.0826C16.2379 11.0827 16.4394 11.3782 16.2996 11.6285L12.1438 19.0692C11.9271 19.4571 11.2751 19.2602 11.3609 18.8326L12.4128 13.5863C12.4591 13.3553 12.2626 13.1428 12.0025 13.1427L8.97942 13.1417C8.66885 13.1415 8.46734 12.8461 8.60707 12.5958L12.7561 5.16317C12.9728 4.77487 13.6254 4.97236 13.5389 5.4001L12.4807 10.6375C12.434 10.8686 12.6306 11.0814 12.8909 11.0815L15.9273 11.0826Z" fill="white"/>
<defs>
<linearGradient id="paint0_linear_113_474" x1="23.6895" y1="0.116121" x2="4.96606" y2="21.3589" gradientUnits="userSpaceOnUse">
<stop stop-color="#D29A63"/>
<stop offset="1" stop-color="#BC7836"/>
</linearGradient>
<linearGradient id="paint1_linear_113_474" x1="17.5649" y1="0.196044" x2="7.78194" y2="13.9342" gradientUnits="userSpaceOnUse">
<stop stop-color="#FFC849"/>
<stop offset="1" stop-color="#F8991F"/>
</linearGradient>
</defs>
</svg>
